<?xml version="1.0" encoding="UTF-8" standalone="no"?>
<!-- Created with Inkscape (http://www.inkscape.org/) -->

<svg
   xmlns:dc="http://purl.org/dc/elements/1.1/"
   xmlns:cc="http://creativecommons.org/ns#"
   xmlns:rdf="http://www.w3.org/1999/02/22-rdf-syntax-ns#"
   xmlns:svg="http://www.w3.org/2000/svg"
   xmlns="http://www.w3.org/2000/svg"
   xmlns:sodipodi="http://sodipodi.sourceforge.net/DTD/sodipodi-0.dtd"
   xmlns:inkscape="http://www.inkscape.org/namespaces/inkscape"
   width="24mm"
   height="24mm"
   viewBox="0 0 24 24"
   version="1.1"
   id="svg8"
   sodipodi:docname="logo-white.svg"
   inkscape:version="0.92.4 (5da689c313, 2019-01-14)">
  <defs
     id="defs2" />
  <sodipodi:namedview
     id="base"
     pagecolor="#ffffff"
     bordercolor="#666666"
     borderopacity="1.0"
     inkscape:pageopacity="0.0"
     inkscape:pageshadow="2"
     inkscape:zoom="5.6"
     inkscape:cx="57.363469"
     inkscape:cy="68.927888"
     inkscape:document-units="mm"
     inkscape:current-layer="g1430"
     showgrid="false"
     inkscape:window-width="1440"
     inkscape:window-height="1017"
     inkscape:window-x="-8"
     inkscape:window-y="-8"
     inkscape:window-maximized="1" />
  <metadata
     id="metadata5">
    <rdf:RDF>
      <cc:Work
         rdf:about="">
        <dc:format>image/svg+xml</dc:format>
        <dc:type
           rdf:resource="http://purl.org/dc/dcmitype/StillImage" />
        <dc:title></dc:title>
      </cc:Work>
    </rdf:RDF>
  </metadata>
  <g
     inkscape:label="Layer 1"
     inkscape:groupmode="layer"
     id="layer1"
     transform="translate(0,-273)">
    <g
       id="g1430"
       transform="matrix(0.26458333,0,0,0.26458333,3.6095525,273.19012)">
      <g
         id="g1409"
         transform="translate(-0.28807204,12.632253)"
         style="fill:#ffffff">
        <path
           id="path1401"
           d="M 32,58 A 5.49,5.49 0 0 1 31.42,58 6.13,6.13 0 0 1 26,52.27 c -0.13,0.15 -0.26,0.28 -0.39,0.42 A 8.2,8.2 0 0 1 19.91,55 4,4 0 0 1 16,51 V 49.9 A 7,7 0 0 1 11,52 H 8.74 A 2.74,2.74 0 0 1 6.12,48.46 L 7.69,43.35 A 52.2,52.2 0 0 0 10,28 c 0,-0.75 0,-1.5 0.11,-2.25 a 22,22 0 0 1 6.33,-13.31 22.67,22.67 0 0 1 3.26,-2.68 18.57,18.57 0 0 1 1.81,-1.1 21.51,21.51 0 0 1 6.06,-2.21 22,22 0 0 1 8.86,0 21.51,21.51 0 0 1 6.06,2.21 18.57,18.57 0 0 1 1.81,1.1 22.67,22.67 0 0 1 3.26,2.68 21.54,21.54 0 0 1 5.25,8.48 22.34,22.34 0 0 1 1.08,4.83 C 53.96,26.5 54,27.25 54,28 a 52.2,52.2 0 0 0 2.31,15.35 l 1.57,5.11 v 0 A 2.74,2.74 0 0 1 55.26,52 H 53 A 7,7 0 0 1 48,49.9 V 51 a 4,4 0 0 1 -3.91,4 H 44 a 8,8 0 0 1 -5.63,-2.31 l -0.38,-0.4 A 6,6 0 0 1 32,58 Z M 28,47 v 4.78 A 4.15,4.15 0 0 0 31.6,56 4,4 0 0 0 34.69,55 4,4 0 0 0 36,52 v -5 a 1,1 0 0 1 2,0 6,6 0 0 0 6,6 h 0.07 A 2,2 0 0 0 46,51 v -6 a 1,1 0 0 1 2,0 4.91,4.91 0 0 0 0.29,1.66 A 5,5 0 0 0 53,50 h 2.26 A 0.74,0.74 0 0 0 56,49.26 0.89,0.89 0 0 0 56,49 L 54.43,43.9 A 54.17,54.17 0 0 1 52,28 c 0,-0.68 0,-1.37 -0.1,-2.05 a 21.07,21.07 0 0 0 -2.31,-7.48 20.31,20.31 0 0 0 -6.41,-7.06 c -0.53,-0.36 -1.09,-0.69 -1.65,-1 a 19.5,19.5 0 0 0 -5.5,-2 20.25,20.25 0 0 0 -8.06,0 19.5,19.5 0 0 0 -5.5,2 18.68,18.68 0 0 0 -1.65,1 19.2,19.2 0 0 0 -3,2.44 A 19.89,19.89 0 0 0 12.1,26 C 12,26.63 12,27.32 12,28 A 54.17,54.17 0 0 1 9.6,43.94 L 8,49 a 0.89,0.89 0 0 0 0,0.22 0.74,0.74 0 0 0 0.74,0.74 H 11 a 5,5 0 0 0 5,-5 1,1 0 0 1 2,0 v 6 a 2,2 0 0 0 1.93,2 H 20 a 6,6 0 0 0 6,-6 1,1 0 0 1 2,0 z"
           inkscape:connector-curvature="0"
           style="fill:#ffffff" />
        <circle
           id="circle1403"
           r="1.5"
           cy="24.5"
           cx="20.5"
           style="fill:#ffffff" />
        <circle
           id="circle1405"
           r="1.5"
           cy="24.5"
           cx="43.5"
           style="fill:#ffffff" />
        <path
           id="path1407"
           d="m 32,43 a 1,1 0 0 1 -0.71,-0.29 l -7.79,-7.8 a 2,2 0 0 1 0,-2.82 l 1.43,-1.43 a 10,10 0 0 1 14.14,0 L 40.45,32 a 2,2 0 0 1 0,2.82 l -7.79,7.8 A 1,1 0 0 1 32,43 Z m 0,-13.27 a 8,8 0 0 0 -5.66,2.34 l -1.43,1.43 7,7 L 39,33.45 37.62,32.07 A 8,8 0 0 0 32,29.73 Z"
           inkscape:connector-curvature="0"
           style="fill:#ffffff" />
      </g>
      <text
         id="text1411"
         font-weight="bold"
         font-size="5px"
         y="79"
         x="0"
         style="font-weight:bold;font-size:5px;font-family:'Helvetica Neue', Helvetica, Arial-Unicode, Arial, Sans-serif;fill:#000000" />
      <text
         id="text1413"
         font-weight="bold"
         font-size="5px"
         y="84"
         x="0"
         style="font-weight:bold;font-size:5px;font-family:'Helvetica Neue', Helvetica, Arial-Unicode, Arial, Sans-serif;fill:#000000" />
    </g>
  </g>
</svg>
